<svg width="32" height="32" viewBox="0 0 32 32" fill="none" xmlns="http://www.w3.org/2000/svg">
<rect x="1" y="1" width="30" height="30" rx="5" stroke="#FAFAFA" stroke-width="2"/>
<path d="M18.8792 23C18.7311 23.0007 18.5843 22.9754 18.4472 22.9254C18.31 22.8755 18.1853 22.8018 18.0802 22.7087L11.3273 16.6831C11.1177 16.495 11 16.2404 11 15.9751C11 15.7098 11.1177 15.4553 11.3273 15.2671L18.0802 9.24148C18.2955 9.07696 18.5724 8.99099 18.8557 9.00075C19.1389 9.01051 19.4076 9.11529 19.6081 9.29414C19.8085 9.473 19.9259 9.71276 19.9369 9.96551C19.9478 10.2183 19.8515 10.4654 19.6671 10.6575L13.7133 15.9701L19.6671 21.2827C19.8251 21.4225 19.9331 21.6011 19.9775 21.7957C20.0218 21.9904 20.0004 22.1924 19.9161 22.3762C19.8318 22.56 19.6883 22.7174 19.5037 22.8284C19.3191 22.9394 19.1018 22.9992 18.8792 23Z" fill="#FAFAFA" stroke="#FAFAFA" stroke-width="0.8"/>
</svg>
