<svg id="Capa_1" enable-background="new 0 0 512 512" height="512" viewBox="0 0 512 512" width="512" xmlns="http://www.w3.org/2000/svg"><g><path d="m63.522 488.678c-4.596 6.893-2.733 16.206 4.16 20.801 2.558 1.705 5.448 2.521 8.307 2.521 4.847 0 9.604-2.346 12.494-6.682l11.432-17.148c-9.254-4.061-18.071-8.94-26.349-14.559z"/><path d="m438.439 473.611c-8.278 5.619-17.094 10.498-26.349 14.559l11.432 17.148c2.891 4.336 7.646 6.682 12.494 6.682 2.859 0 5.75-.816 8.307-2.521 6.894-4.595 8.756-13.908 4.16-20.801z"/><path d="m31.003 290.142v46.858c0 74.439 60.561 135 135 135h180c74.439 0 135-60.561 135-135v-8.734h-247.858c-69.733 0-137.611-12.822-202.142-38.124z"/><path d="m80.997 176.789v-121.789c0-13.785 11.215-25 25-25h20c13.785 0 25 11.215 25 25v7.117c-23.188 6.681-40 28.443-40 53.718v4.165c0 8.284 6.716 15 15 15h80c8.284 0 15-6.716 15-15v-5c0-25.127-16.943-46.36-40-52.907v-7.093c0-30.327-24.673-55-55-55h-20c-30.327 0-55 24.673-55 55v109.744c2.362.726 4.694 1.579 6.983 2.594 7.609 3.382 15.284 6.527 23.017 9.451z"/><path d="m479.125 234.517h-245.98c-64.963 0-127.976-13.375-187.315-39.75-16.114-7.138-34.925.094-42.074 16.176-7.149 16.083.093 34.925 16.176 42.074 67.547 30.028 139.275 45.249 213.214 45.249h245.981c17.608 0 31.875-14.267 31.875-31.875-.002-17.608-14.269-31.874-31.877-31.874z"/></g></svg>