<svg width="24" height="15" viewBox="0 0 24 15" fill="none" xmlns="http://www.w3.org/2000/svg">
<path d="M23.2951 4.77061C23.145 4.35138 22.8947 4.09983 22.6444 4.01598C21.243 3.68059 19.3911 1.7521 18.5402 1.41672C16.6883 0.662088 12.0335 -0.679471 10.2817 0.410545C7.42879 2.33904 6.72807 3.68059 6.22755 4.01598C4.4257 4.35137 2.82405 4.93831 1.37256 5.69293C1.17235 5.86063 1.0222 6.02832 0.872043 6.27987C0.171322 7.53758 -0.0789356 9.04683 0.0211674 10.8076C0.12127 12.0653 0.77194 12.9877 1.52271 12.9877C1.42261 12.4846 1.37256 11.9815 1.37256 11.4784C1.37256 8.62759 2.774 6.27987 4.47575 6.27987C6.1775 6.27987 7.57894 8.62759 7.57894 11.4784C7.57894 11.9815 7.52889 12.5684 7.42879 12.9877H16.2879C16.1878 12.4846 16.1377 11.9815 16.1377 11.4784C16.1377 8.62759 17.5392 6.27987 19.2409 6.27987C20.9427 6.27987 22.3441 8.62759 22.3441 11.4784C22.3441 11.9815 22.2941 12.4007 22.244 12.82C22.5944 12.6523 22.9948 12.4846 23.4453 12.0653C23.6955 11.8138 23.8457 11.3946 23.8957 10.8915C24.146 8.79529 23.9458 6.6991 23.2951 4.77061ZM12.534 4.35138L8.07946 4.60292L7.7291 4.43522C8.57997 3.5129 9.53095 2.75827 10.6321 2.00365C10.6821 2.00365 10.7322 1.9198 10.7822 1.9198C11.3328 1.7521 11.9334 1.7521 12.534 1.7521V4.35138ZM17.8395 4.01598L13.5351 4.26753V1.83595C14.9365 1.9198 16.4381 2.33904 18.1398 3.00982L17.8395 4.01598Z" fill="#F65457" fill-opacity="0.64"/>
<path d="M2.42365 11.4784C2.42365 9.54995 3.37462 7.95685 4.52581 7.95685C5.67699 7.95685 6.62797 9.54995 6.62797 11.4784C6.62797 13.4069 5.67699 15 4.52581 15C3.37462 15 2.42365 13.4069 2.42365 11.4784Z" fill="#F65457" fill-opacity="0.64"/>
<path d="M21.4432 11.4784C21.4432 13.4069 20.4922 15 19.3411 15C18.1899 15 17.2389 13.4069 17.2389 11.4784C17.2389 9.54995 18.1899 7.95685 19.3411 7.95685C20.4922 7.95685 21.4432 9.54995 21.4432 11.4784Z" fill="#F65457" fill-opacity="0.64"/>
</svg>
