<svg width="16" height="16" viewBox="0 0 16 16" fill="none" xmlns="http://www.w3.org/2000/svg">
<g clip-path="url(#clip0_199_112)">
<path d="M4.35388 3.69104L3.02819 2.36535C2.8451 2.18225 2.54844 2.18225 2.36535 2.36535C2.18225 2.54844 2.18225 2.8451 2.36535 3.02819L3.69104 4.35388C3.87413 4.53697 4.17078 4.53697 4.35388 4.35388C4.53697 4.17078 4.53697 3.87413 4.35388 3.69104Z" fill="#080C26"/>
<path d="M2.375 7.53125H0.46875C0.209656 7.53125 0 7.74091 0 8C0 8.25909 0.209656 8.46875 0.46875 8.46875H2.375C2.63409 8.46875 2.84375 8.25909 2.84375 8C2.84375 7.74091 2.63409 7.53125 2.375 7.53125Z" fill="#080C26"/>
<path d="M15.5312 7.53125H13.625C13.3659 7.53125 13.1562 7.74091 13.1562 8C13.1562 8.25909 13.3659 8.46875 13.625 8.46875H15.5312C15.7903 8.46875 16 8.25909 16 8C16 7.74091 15.7903 7.53125 15.5312 7.53125Z" fill="#080C26"/>
<path d="M13.6346 2.36535C13.4515 2.18225 13.1549 2.18225 12.9718 2.36535L11.6461 3.69104C11.463 3.87413 11.463 4.17078 11.6461 4.35388C11.8292 4.53697 12.1259 4.53697 12.309 4.35388L13.6346 3.02819C13.8177 2.8451 13.8177 2.54847 13.6346 2.36535Z" fill="#080C26"/>
<path d="M8 0C7.74091 0 7.53125 0.209656 7.53125 0.46875V2.375C7.53125 2.63409 7.74091 2.84375 8 2.84375C8.25909 2.84375 8.46875 2.63409 8.46875 2.375V0.46875C8.46875 0.209656 8.25909 0 8 0Z" fill="#080C26"/>
<path d="M10.625 4.69058C9.60311 3.88433 8.28121 3.59374 6.98746 3.90312C5.48746 4.24999 4.27811 5.44058 3.91246 6.93124C3.54683 8.43121 3.9687 9.94996 5.0468 11.0093C5.4312 11.3937 5.65621 11.9968 5.65621 12.6156V12.7187C5.65621 12.9812 5.86242 13.1875 6.12496 13.1875H9.87496C10.1375 13.1875 10.3437 12.9812 10.3437 12.7187V12.6156C10.3437 12.0062 10.5781 11.3843 10.9906 10.9812C11.7781 10.1843 12.2187 9.12499 12.2187 7.99999C12.2187 6.70624 11.6375 5.49683 10.625 4.69058ZM7.99996 6.59374C7.29277 6.59374 6.77796 7.06283 6.64314 7.60587C6.5818 7.85283 6.3333 8.01046 6.07505 7.94827C5.82421 7.88602 5.67083 7.63149 5.73311 7.38065C5.96536 6.44315 6.84592 5.65624 7.99996 5.65624C8.25905 5.65624 8.46871 5.8659 8.46871 6.12499C8.46871 6.38408 8.25905 6.59374 7.99996 6.59374Z" fill="#080C26"/>
<path d="M6.125 14.125V14.5938C6.125 15.3692 6.75581 16 7.53125 16H8.46875C9.24419 16 9.875 15.3692 9.875 14.5938V14.125H6.125Z" fill="#080C26"/>
</g>
<defs>
<clipPath id="clip0_199_112">
<rect width="16" height="16" fill="white"/>
</clipPath>
</defs>
</svg>
