<svg width="16" height="16" viewBox="0 0 16 16" fill="none" xmlns="http://www.w3.org/2000/svg">
<g clip-path="url(#clip0_199_110)">
<path fill-rule="evenodd" clip-rule="evenodd" d="M0.833252 3.99992C0.833252 2.25102 2.25102 0.833252 3.99992 0.833252H11.9999C13.7489 0.833252 15.1666 2.25102 15.1666 3.99992V11.9999C15.1666 13.7489 13.7489 15.1666 11.9999 15.1666H3.99992C2.25102 15.1666 0.833252 13.7489 0.833252 11.9999V3.99992ZM3.59992 7.03325C3.76561 6.81232 4.07901 6.76759 4.29992 6.93325L6.96659 8.93325C7.09252 9.02765 7.16659 9.17585 7.16659 9.33325C7.16659 9.49065 7.09252 9.63885 6.96659 9.73325L4.29992 11.7333C4.07901 11.8989 3.76561 11.8542 3.59992 11.6333C3.43423 11.4123 3.47901 11.0989 3.69992 10.9333L5.83325 9.33325L3.69992 7.73325C3.47901 7.56759 3.43423 7.25419 3.59992 7.03325ZM8.16659 11.3333C8.16659 11.0571 8.39045 10.8333 8.66659 10.8333H12.6666C12.9427 10.8333 13.1666 11.0571 13.1666 11.3333C13.1666 11.6094 12.9427 11.8333 12.6666 11.8333H8.66659C8.39045 11.8333 8.16659 11.6094 8.16659 11.3333Z" fill="#FAFAFA"/>
</g>
<defs>
<clipPath id="clip0_199_110">
<rect width="16" height="16" fill="white"/>
</clipPath>
</defs>
</svg>
