<svg width="24" height="25" viewBox="0 0 24 25" fill="none" xmlns="http://www.w3.org/2000/svg">
<path d="M23.49 7.8278L21.46 4.12962C20.968 3.24294 20.2578 2.52477 19.41 2.05689L17.29 0.911435C16.5984 0.530848 15.8346 0.332801 15.06 0.333253H8.94C8.16542 0.332801 7.40157 0.530848 6.71 0.911435L4.6 2.05689C3.74743 2.52131 3.03311 3.24004 2.54 4.12962L0.51 7.8278C0.179493 8.43555 0.00345031 9.12843 0 9.83507C5.43229e-05 10.4405 0.129297 11.0376 0.377497 11.5792C0.625696 12.1207 0.986039 12.5918 1.43 12.9551L4 15.0605V21.0605C4.00232 21.9277 4.31914 22.7587 4.88124 23.3719C5.44335 23.9851 6.20506 24.3307 7 24.3333H17C17.7949 24.3307 18.5566 23.9851 19.1188 23.3719C19.6809 22.7587 19.9977 21.9277 20 21.0605V15.0605L22.57 12.9551C23.014 12.5918 23.3743 12.1207 23.6225 11.5792C23.8707 11.0376 23.9999 10.4405 24 9.83507C23.9965 9.12843 23.8205 8.43555 23.49 7.8278ZM14.81 2.51507C14.6076 3.15223 14.2282 3.70474 13.7246 4.09578C13.2209 4.48682 12.6182 4.69695 12 4.69695C11.3818 4.69695 10.7791 4.48682 10.2754 4.09578C9.77184 3.70474 9.39244 3.15223 9.19 2.51507H14.81Z" fill="#B567F1"/>
</svg>
